<svg width="42" height="54" viewBox="0 0 42 54" fill="none" xmlns="http://www.w3.org/2000/svg">
<path d="M23.8568 1.00251C23.584 1 23.2776 1 22.9274 1H10.1433C6.94303 1 5.34171 1 4.11938 1.62974C3.04418 2.18368 2.17065 3.06692 1.62281 4.15408C1 5.39001 1 7.00915 1 10.245V43.7561C1 46.992 1 48.6091 1.62281 49.845C2.17065 50.9322 3.04418 51.8169 4.11938 52.3709C5.34053 53 6.93993 53 10.134 53L31.8655 53C35.0595 53 36.6566 53 37.8778 52.3709C38.9529 51.8169 39.8294 50.9321 40.3772 49.845C40.9994 48.6103 40.9994 46.9954 40.9994 43.7659V19.2742C40.9994 18.9197 40.9994 18.6095 40.9968 18.3333M23.8568 1.00251C24.6729 1.01002 25.1892 1.04 25.6821 1.15964C26.2651 1.30118 26.8221 1.53521 27.3333 1.852C27.9098 2.20919 28.4048 2.7097 29.3925 3.70833L38.3223 12.7375C39.3106 13.7368 39.8019 14.235 40.1553 14.8181C40.4686 15.3351 40.7004 15.8987 40.8404 16.4883C40.9587 16.9864 40.989 17.5086 40.9968 18.3333M23.8568 1.00251V9.08889C23.8568 12.3247 23.8568 13.9415 24.4796 15.1775C25.0275 16.2646 25.901 17.1503 26.9762 17.7042C28.1973 18.3333 29.7967 18.3333 32.9907 18.3333H40.9968M40.9968 18.3333H41" stroke="#77895D" stroke-width="2" stroke-linecap="round" stroke-linejoin="round"/>
</svg>
